<svg width="656" height="87" viewBox="0 0 656 87" fill="none" xmlns="http://www.w3.org/2000/svg">
<path d="M595.498 73C593.738 73 592.293 72.5924 591.162 71.7773C590.094 70.9622 589.403 69.8649 589.089 68.4855C588.837 67.106 589.12 65.5699 589.937 63.8769L614.065 11.1134C615.07 8.98156 616.264 7.44537 617.646 6.50484C619.028 5.50161 620.631 5 622.453 5C624.275 5 625.877 5.50161 627.26 6.50484C628.642 7.44537 629.804 8.98156 630.747 11.1134L655.063 63.8769C655.88 65.5699 656.163 67.1374 655.911 68.5795C655.723 69.959 655.094 71.0562 654.026 71.8714C652.958 72.6238 651.576 73 649.879 73C647.743 73 646.078 72.4984 644.884 71.4952C643.753 70.4919 642.748 68.9244 641.868 66.7925L636.213 53.7192L642.057 57.7635H602.755L608.598 53.7192L603.038 66.7925C602.095 68.9871 601.09 70.586 600.022 71.5892C599.016 72.5297 597.508 73 595.498 73ZM622.264 21.3651L610.2 50.0512L607.656 46.3831H637.156L634.611 50.0512L622.453 21.3651H622.264Z" fill="white"/>
<path d="M554.548 73C552.097 73 550.226 72.3416 548.935 71.0249C547.645 69.7082 547 67.8585 547 65.4758V12.5242C547 10.1415 547.645 8.29184 548.935 6.97511C550.226 5.65837 552.097 5 554.548 5C556.935 5 558.774 5.65837 560.065 6.97511C561.355 8.29184 562 10.1415 562 12.5242V65.4758C562 67.8585 561.355 69.7082 560.065 71.0249C558.839 72.3416 557 73 554.548 73Z" fill="white"/>
<path d="M472.473 73C470.046 73 468.194 72.3333 466.916 71C465.639 69.6667 465 67.7937 465 65.381V12.5238C465 10.0476 465.639 8.1746 466.916 6.90476C468.257 5.63492 470.142 5 472.569 5H495.85C503.387 5 509.199 6.80952 513.287 10.4286C517.375 14.0476 519.419 19.0952 519.419 25.5714C519.419 29.7619 518.493 33.381 516.64 36.4286C514.788 39.4762 512.105 41.8254 508.592 43.4762C505.143 45.127 500.896 45.9524 495.85 45.9524L496.617 44.3333H500.545C503.227 44.3333 505.559 45 507.539 46.3333C509.583 47.6032 511.339 49.5714 512.808 52.2381L518.748 63.1905C519.642 64.7778 520.057 66.3333 519.994 67.8571C519.93 69.381 519.355 70.619 518.269 71.5714C517.183 72.5238 515.586 73 513.479 73C511.371 73 509.646 72.5556 508.305 71.6667C507.028 70.7778 505.878 69.4127 504.856 67.5714L495.658 50.7143C494.7 48.9365 493.519 47.7302 492.114 47.0952C490.772 46.4603 489.112 46.1429 487.132 46.1429H479.85V65.381C479.85 67.7937 479.211 69.6667 477.934 71C476.72 72.3333 474.9 73 472.473 73ZM479.85 35.4762H493.167C497.128 35.4762 500.098 34.6825 502.078 33.0952C504.121 31.5079 505.143 29.127 505.143 25.9524C505.143 22.8413 504.121 20.4921 502.078 18.9048C500.098 17.3175 497.128 16.5238 493.167 16.5238H479.85V35.4762Z" fill="white"/>
<path d="M377.498 73C375.738 73 374.293 72.5924 373.162 71.7773C372.094 70.9622 371.403 69.8649 371.089 68.4855C370.837 67.106 371.12 65.5699 371.937 63.8769L396.065 11.1134C397.07 8.98156 398.264 7.44537 399.646 6.50484C401.028 5.50161 402.631 5 404.453 5C406.275 5 407.877 5.50161 409.26 6.50484C410.642 7.44537 411.804 8.98156 412.747 11.1134L437.063 63.8769C437.88 65.5699 438.163 67.1374 437.911 68.5795C437.723 69.959 437.094 71.0562 436.026 71.8714C434.958 72.6238 433.576 73 431.879 73C429.743 73 428.078 72.4984 426.884 71.4952C425.753 70.4919 424.748 68.9244 423.868 66.7925L418.213 53.7192L424.057 57.7635H384.755L390.598 53.7192L385.038 66.7925C384.095 68.9871 383.09 70.586 382.022 71.5892C381.016 72.5297 379.508 73 377.498 73ZM404.264 21.3651L392.2 50.0512L389.656 46.3831H419.156L416.611 50.0512L404.453 21.3651H404.264Z" fill="white"/>
<path d="M304.584 72.872C302.152 72.872 300.264 72.2 298.92 70.856C297.64 69.512 297 67.656 297 65.288V12.584C297 10.088 297.64 8.2 298.92 6.92C300.2 5.64 302.056 5 304.488 5C306.856 5 308.68 5.64 309.96 6.92C311.24 8.2 311.88 10.088 311.88 12.584V60.296H337.608C339.656 60.296 341.224 60.84 342.312 61.928C343.464 63.016 344.04 64.552 344.04 66.536C344.04 68.584 343.464 70.152 342.312 71.24C341.224 72.328 339.656 72.872 337.608 72.872H304.584Z" fill="white"/>
<path d="M230.584 72.872C228.152 72.872 226.264 72.2 224.92 70.856C223.64 69.512 223 67.656 223 65.288V12.584C223 10.088 223.64 8.2 224.92 6.92C226.2 5.64 228.056 5 230.488 5C232.856 5 234.68 5.64 235.96 6.92C237.24 8.2 237.88 10.088 237.88 12.584V60.296H263.608C265.656 60.296 267.224 60.84 268.312 61.928C269.464 63.016 270.04 64.552 270.04 66.536C270.04 68.584 269.464 70.152 268.312 71.24C267.224 72.328 265.656 72.872 263.608 72.872H230.584Z" fill="white"/>
<path d="M156.754 73C154.265 73 152.35 72.3248 151.01 70.9745C149.67 69.6241 149 67.695 149 65.1872V12.8128C149 10.305 149.67 8.37589 151.01 7.02553C152.35 5.67518 154.265 5 156.754 5H190.161C192.075 5 193.511 5.51442 194.468 6.54327C195.489 7.5078 196 8.92246 196 10.7872C196 12.7163 195.489 14.1953 194.468 15.2241C193.511 16.1887 192.075 16.6709 190.161 16.6709H163.167V32.5858H187.959C189.938 32.5858 191.405 33.1002 192.363 34.1291C193.384 35.0936 193.894 36.5404 193.894 38.4695C193.894 40.3986 193.384 41.8775 192.363 42.9064C191.405 43.8709 189.938 44.3532 187.959 44.3532H163.167V61.3291H190.161C192.075 61.3291 193.511 61.8435 194.468 62.8723C195.489 63.8369 196 65.2515 196 67.1163C196 69.0454 195.489 70.5243 194.468 71.5532C193.511 72.5177 192.075 73 190.161 73H156.754Z" fill="white"/>
<path fill-rule="evenodd" clip-rule="evenodd" d="M37 14H75L92 31H45L59 45H98L112 31L81 0H31L0 31L56 87L84.89 58.06H65.09L56.08 67.07L20 31L37 14Z" fill="white"/>
</svg>
